<?xml version="1.0" standalone="no"?>
<!DOCTYPE svg PUBLIC "-//W3C//DTD SVG 20010904//EN"
 "http://www.w3.org/TR/2001/REC-SVG-20010904/DTD/svg10.dtd">
<svg version="1.0" xmlns="http://www.w3.org/2000/svg"
 width="1024.000000pt" height="1024.000000pt" viewBox="0 0 1024.000000 1024.000000"
 preserveAspectRatio="xMidYMid meet">

<g transform="translate(0.000000,1024.000000) scale(0.100000,-0.100000)"
fill="#000000" stroke="none">
<path d="M4840 9868 c-146 -3 -356 -11 -468 -17 -112 -6 -241 -11 -288 -11
-80 0 -85 -1 -94 -24 -5 -13 -15 -28 -24 -33 -8 -4 -65 -54 -128 -109 -62 -56
-171 -148 -243 -205 -71 -58 -165 -134 -209 -169 -43 -36 -108 -89 -145 -119
-36 -30 -122 -100 -191 -156 -69 -56 -143 -113 -166 -127 -37 -24 -42 -33 -62
-106 -24 -88 -33 -111 -174 -437 -52 -121 -110 -262 -128 -313 -31 -86 -36
-95 -73 -114 -22 -11 -101 -60 -176 -109 -74 -49 -157 -97 -183 -107 -29 -10
-48 -23 -48 -32 0 -8 7 -85 15 -170 27 -265 43 -481 38 -501 -3 -10 -9 -16
-14 -13 -5 3 -9 0 -9 -5 0 -6 -6 -11 -13 -11 -7 0 -34 -19 -60 -42 -26 -23
-58 -47 -70 -53 -12 -6 -21 -17 -19 -24 1 -7 -2 -10 -7 -7 -11 7 -33 -18 -24
-28 4 -4 1 -5 -7 -1 -9 3 -30 -8 -50 -26 -19 -17 -57 -45 -85 -64 -92 -62
-263 -191 -317 -239 -10 -9 -20 -16 -23 -16 -3 0 -19 -7 -37 -16 -22 -12 -27
-18 -18 -24 7 -5 19 -6 27 -3 7 3 13 0 13 -7 0 -18 70 -9 232 30 119 28 135
35 122 47 -19 19 -18 26 6 43 11 8 20 22 20 32 0 11 7 18 20 18 11 0 20 5 20
10 0 6 9 10 20 10 11 0 20 5 20 10 0 6 7 10 16 10 9 0 26 10 37 23 13 15 21
18 24 10 3 -7 13 -13 23 -13 21 0 28 15 25 50 -1 14 3 29 9 33 8 6 7 10 -1 14
-16 6 -18 103 -3 103 6 0 10 7 10 16 0 9 14 29 30 44 17 15 30 33 30 39 0 6 4
11 8 11 12 0 8 -61 -5 -85 -25 -47 -108 -333 -99 -343 3 -2 16 2 28 10 13 8
52 25 88 38 36 13 135 63 220 110 149 83 219 120 227 120 1 0 3 -8 3 -17 1
-10 7 -3 16 16 8 19 13 40 10 47 -3 7 0 14 6 16 7 3 14 34 16 71 4 63 3 67
-17 67 -14 0 -21 6 -21 18 0 12 -14 25 -40 37 -22 10 -40 24 -40 32 0 7 -9 13
-20 13 -11 0 -20 6 -20 14 0 9 -15 17 -40 21 -34 6 -40 10 -40 32 0 25 -2 25
-50 21 -36 -4 -48 -2 -41 6 4 6 33 45 63 86 31 41 76 97 102 124 25 28 46 53
46 56 0 4 10 15 21 26 12 10 76 87 142 169 66 83 170 203 231 268 61 65 118
130 128 145 9 15 61 66 115 113 54 48 97 92 95 99 -1 6 1 9 6 6 8 -5 33 19 92
88 14 16 18 25 10 21 -8 -5 -25 -22 -38 -37 -13 -15 -28 -26 -33 -22 -5 3 -9
0 -9 -5 0 -6 -8 -11 -17 -11 -10 0 -27 -7 -37 -15 -11 -8 -30 -15 -42 -15 -13
0 -28 -8 -33 -17 -20 -34 -11 -6 18 58 16 35 45 109 66 164 48 130 155 387
167 400 6 7 12 4 18 -6 5 -9 19 -27 30 -40 12 -13 5 1 -14 31 -20 30 -36 59
-36 65 0 6 73 37 163 69 89 33 203 76 252 97 499 210 705 292 712 285 3 -2
-37 -33 -89 -67 -124 -83 -206 -149 -331 -266 -238 -225 -433 -398 -487 -435
-14 -9 -20 -17 -14 -17 7 -1 34 14 60 32 95 63 223 133 516 282 81 41 177 93
214 116 82 50 335 168 378 176 l31 6 -40 -42 c-47 -50 -208 -182 -280 -230
-27 -19 -78 -54 -112 -78 -35 -25 -63 -42 -63 -38 0 3 -8 -1 -17 -11 -10 -9
-58 -52 -108 -95 -49 -43 -101 -89 -113 -103 -30 -33 -24 -58 6 -28 12 12 24
22 26 22 3 0 17 11 31 25 15 13 52 31 84 40 61 18 82 27 210 87 l84 39 36 -27
c20 -14 78 -53 129 -86 50 -33 92 -67 92 -75 0 -8 -3 -12 -7 -10 -5 3 -23 -10
-42 -28 -24 -24 -30 -34 -21 -40 8 -5 11 -4 6 3 -3 6 4 18 16 26 21 15 23 14
35 -15 15 -37 17 -50 3 -29 -5 8 -10 11 -10 5 0 -28 19 -38 64 -33 39 5 45 3
35 -8 -9 -11 -9 -21 0 -40 6 -14 11 -34 11 -45 0 -11 7 -31 16 -45 12 -17 15
-36 10 -62 l-6 -38 81 -31 c44 -18 87 -29 96 -26 10 4 14 2 10 -4 -6 -10 51
-42 87 -49 10 -2 23 -10 30 -18 13 -18 25 -16 96 16 30 14 114 49 185 79 72
29 142 60 157 69 14 8 81 48 148 89 l121 74 -35 21 c-39 24 -196 156 -196 165
2 23 82 77 199 135 47 23 56 25 75 13 20 -13 87 -38 113 -43 7 -1 26 -9 43
-17 16 -9 30 -11 30 -6 0 5 -4 9 -10 9 -5 0 -10 9 -10 19 0 11 -5 21 -11 23
-12 4 9 58 23 58 4 0 8 7 8 16 0 10 -6 14 -15 11 -8 -4 -17 -1 -21 5 -4 7 -3
8 4 4 7 -4 12 -1 12 8 0 8 -5 18 -12 22 -7 5 -8 3 -3 -7 7 -11 6 -12 -7 -2 -8
7 -18 10 -21 6 -4 -3 -7 1 -7 10 0 8 -9 19 -21 22 -13 4 -18 12 -15 21 3 9 1
12 -5 9 -13 -9 -50 25 -42 38 3 5 1 7 -4 4 -6 -4 -14 0 -17 9 -3 8 -10 12 -16
9 -5 -3 -10 -2 -10 4 0 9 -54 44 -70 46 -20 2 -133 82 -170 120 l-45 47 58
-26 c33 -14 109 -47 170 -73 128 -54 564 -269 589 -290 11 -10 18 -11 23 -4 3
6 11 11 16 11 6 0 8 -4 5 -9 -4 -5 7 -4 24 2 16 6 30 16 30 22 0 20 -69 79
-271 235 -15 11 -34 22 -42 26 -8 3 -17 13 -20 23 -2 10 -75 72 -162 139 -86
67 -155 122 -152 122 2 0 37 -14 78 -31 41 -17 115 -45 164 -64 50 -18 164
-65 255 -105 372 -161 500 -214 545 -223 6 -2 16 -7 24 -11 10 -7 12 -5 7 5
-4 8 -1 6 7 -3 8 -10 19 -18 25 -18 7 0 24 -19 39 -42 14 -24 33 -48 42 -55 9
-7 13 -13 9 -13 -4 0 4 -11 18 -25 14 -14 22 -30 19 -35 -4 -6 -2 -9 3 -8 5 2
21 -12 36 -29 15 -18 24 -33 19 -33 -6 0 -13 3 -17 7 -3 4 -12 8 -19 9 -7 1
-20 5 -29 9 -20 8 -19 -9 6 -100 23 -87 42 -135 108 -277 32 -69 63 -149 70
-178 9 -40 30 -74 102 -163 49 -62 97 -119 105 -127 9 -8 21 -24 27 -35 6 -11
16 -20 23 -20 6 0 11 -4 12 -10 2 -21 20 -45 30 -40 5 4 9 1 9 -5 0 -6 37 -56
83 -109 45 -54 101 -121 123 -149 23 -28 45 -48 49 -44 5 4 5 2 1 -5 -3 -7 7
-27 23 -45 63 -70 153 -182 177 -220 14 -22 54 -76 90 -121 35 -45 65 -88 65
-97 1 -8 9 95 19 230 10 135 21 284 25 332 l8 86 -39 20 c-21 12 -115 73 -208
136 -142 96 -173 113 -185 103 -14 -10 -14 -10 -5 3 9 12 -1 45 -46 155 -77
187 -122 290 -154 353 -15 29 -52 127 -82 220 -31 92 -62 179 -70 193 -17 34
-52 48 -161 64 l-88 14 71 -2 c52 -2 70 1 67 9 -5 13 -142 124 -232 187 -62
44 -259 201 -348 278 -34 30 -102 88 -150 129 -48 41 -139 126 -202 189 l-114
113 -256 2 c-141 2 -355 8 -476 14 -313 17 -387 18 -685 10z m2010 -805 c0 -8
-50 22 -54 33 -3 9 7 5 24 -8 17 -12 30 -23 30 -25z m-1637 -140 c-7 -2 -19
-2 -25 0 -7 3 -2 5 12 5 14 0 19 -2 13 -5z m524 -109 c-3 -3 -12 -4 -19 -1 -8
3 -5 6 6 6 11 1 17 -2 13 -5z m-957 -264 c0 -5 -2 -10 -4 -10 -3 0 -8 5 -11
10 -3 6 -1 10 4 10 6 0 11 -4 11 -10z m41 -27 c13 -16 20 -25 15 -21 -5 4 -14
0 -21 -9 -8 -11 -14 -13 -19 -5 -4 7 -2 12 3 12 6 0 11 7 11 16 0 8 -4 13 -8
10 -5 -3 -9 1 -9 9 0 19 -1 20 28 -12z m2470 10 c13 -16 12 -17 -3 -4 -10 7
-18 15 -18 17 0 8 8 3 21 -13z m-2422 -56 c8 -10 7 -14 -2 -14 -8 0 -14 6 -14
14 0 7 1 13 2 13 2 0 8 -6 14 -13z m2562 -114 c44 -54 112 -130 150 -169 38
-39 69 -77 69 -84 0 -8 -7 -6 -17 6 -28 32 -80 64 -88 56 -5 -4 -5 -2 -1 5 3
6 -2 18 -12 25 -10 7 -21 20 -25 28 -6 14 -22 39 -39 64 -4 6 -35 46 -68 89
-33 42 -58 77 -56 77 3 0 42 -44 87 -97z m-2201 -7 c0 -2 -7 -7 -16 -10 -8 -3
-12 -2 -9 4 6 10 25 14 25 6z m2475 -335 c4 -15 3 -21 -3 -17 -5 3 -12 17 -15
32 -5 30 8 20 18 -15z m133 -239 c43 -121 79 -238 85 -280 5 -29 3 -31 -14
-22 -34 19 -61 87 -59 149 3 77 1 93 -9 87 -13 -9 -39 63 -39 111 -1 24 -4 49
-8 55 -4 7 -3 10 1 5 5 -4 24 -51 43 -105z m-245 5 c4 3 7 -1 7 -10 0 -22 -3
-21 -26 5 -12 14 -13 18 -3 10 9 -6 19 -9 22 -5z m344 -349 c-3 -8 -6 -5 -6 6
-1 11 2 17 5 13 3 -3 4 -12 1 -19z m-6223 -937 c-8 -9 -22 12 -17 26 6 15 7
14 13 -3 4 -10 6 -21 4 -23z"/>
<path d="M6045 8850 c-3 -5 -1 -10 4 -10 6 0 11 5 11 10 0 6 -2 10 -4 10 -3 0
-8 -4 -11 -10z"/>
<path d="M6523 8845 c0 -8 4 -12 9 -9 5 3 6 10 3 15 -9 13 -12 11 -12 -6z"/>
<path d="M6580 8795 c19 -22 36 -42 38 -44 1 -2 4 -2 7 0 2 3 -14 23 -38 45
l-42 39 35 -40z"/>
<path d="M6640 8740 c0 -5 5 -10 11 -10 5 0 7 5 4 10 -3 6 -8 10 -11 10 -2 0
-4 -4 -4 -10z"/>
<path d="M4555 8540 c-3 -5 -1 -10 4 -10 6 0 11 5 11 10 0 6 -2 10 -4 10 -3 0
-8 -4 -11 -10z"/>
<path d="M4451 8457 c-13 -21 -12 -21 5 -5 10 10 16 20 13 22 -3 3 -11 -5 -18
-17z"/>
<path d="M4360 8316 c-58 -57 -299 -148 -540 -206 -147 -35 -312 -79 -318 -85
-2 -2 3 -34 12 -72 89 -387 94 -419 106 -688 5 -132 12 -271 16 -310 3 -38 8
-114 9 -168 2 -54 5 -101 8 -103 3 -3 11 1 18 8 10 11 27 12 76 6 76 -11 131
-27 488 -148 149 -50 322 -104 385 -121 106 -28 138 -39 113 -39 -5 0 -10 -6
-10 -13 0 -10 15 -13 49 -13 39 1 48 -2 48 -16 0 -10 7 -18 15 -18 8 0 15 -3
15 -7 0 -5 10 -19 21 -33 33 -40 12 -5 -86 145 -51 77 -103 150 -116 162 -13
12 -82 42 -154 66 -71 25 -201 70 -287 101 -204 72 -357 116 -402 116 -20 0
-58 -9 -86 -19 -34 -13 -50 -15 -51 -8 -3 25 4 64 16 102 7 22 34 112 60 200
47 157 112 325 179 461 18 38 53 119 77 181 l44 112 55 15 c30 8 99 25 153 36
54 12 180 43 280 70 110 29 225 53 292 60 146 15 221 31 201 42 -8 5 -59 19
-113 33 -54 13 -126 33 -160 44 -35 11 -91 25 -125 31 -74 13 -245 68 -253 81
-8 13 -18 11 -35 -5z m430 -1935 c0 -6 -9 -9 -20 -8 -11 1 -20 5 -20 9 0 4 9
8 20 8 11 0 20 -4 20 -9z"/>
<path d="M5600 8269 c-58 -16 -162 -49 -207 -66 -31 -11 -40 -19 -36 -32 4
-13 3 -13 -5 -2 -8 11 -20 10 -73 -8 -35 -11 -74 -21 -88 -22 -19 -1 -16 -3
14 -10 38 -9 61 -7 99 7 11 4 16 1 16 -10 0 -13 8 -15 43 -11 33 4 38 3 22 -5
-17 -9 -15 -10 13 -7 17 2 32 -1 32 -6 0 -5 11 -7 25 -5 14 3 25 2 25 -2 0 -4
25 -10 57 -14 31 -4 88 -20 127 -37 81 -34 240 -80 401 -116 61 -14 115 -26
120 -28 12 -3 41 -74 171 -412 49 -127 91 -227 95 -222 3 6 4 22 1 36 -4 22
-2 25 16 21 16 -5 21 0 24 23 6 38 -27 357 -40 389 -12 31 -12 32 -12 75 0 24
-5 35 -14 35 -8 0 -18 9 -21 20 -3 11 -15 20 -26 20 -10 0 -19 4 -19 9 0 6
-11 6 -28 0 -33 -11 -121 -6 -131 8 -3 5 -20 29 -37 53 -17 25 -56 95 -87 156
-31 61 -68 121 -83 135 l-25 24 -117 -41 c-64 -22 -125 -44 -135 -48 -13 -6
-16 -5 -11 8 3 8 11 14 17 13 17 -3 9 44 -10 66 -18 19 -57 21 -113 6z"/>
<path d="M6367 8084 c9 -15 16 -39 15 -55 -1 -15 5 -34 13 -43 9 -8 16 -18 15
-21 -2 -29 2 -45 10 -45 12 0 2 146 -12 173 -5 9 -20 17 -34 17 -24 0 -24 0
-7 -26z"/>
<path d="M3359 7988 c-18 -24 -61 -74 -95 -113 -33 -38 -90 -113 -125 -165
-36 -52 -79 -115 -96 -140 -17 -25 -70 -108 -118 -185 -48 -77 -110 -174 -138
-215 -190 -282 -261 -381 -274 -381 -4 0 -15 -6 -23 -13 -8 -8 -53 -35 -100
-61 -47 -26 -123 -78 -170 -115 -47 -37 -103 -78 -125 -92 -96 -60 -288 -149
-370 -172 -128 -35 -388 -117 -398 -126 -5 -4 10 -90 32 -191 22 -101 47 -229
56 -284 9 -55 23 -131 31 -168 8 -38 14 -72 14 -76 0 -5 -33 -35 -72 -68 -201
-166 -369 -315 -423 -373 -33 -36 -64 -68 -69 -72 -6 -4 21 -73 62 -160 86
-186 119 -268 166 -420 20 -64 41 -120 47 -124 6 -3 23 5 37 19 23 24 26 36
32 132 4 59 11 110 16 115 158 148 502 420 565 445 25 10 76 88 143 219 37 71
75 141 86 156 16 22 0 17 -118 -43 -172 -87 -201 -107 -287 -199 -112 -117
-158 -176 -224 -285 -34 -56 -79 -117 -99 -134 -20 -18 -47 -48 -60 -68 l-22
-36 1 45 c3 79 -21 414 -31 424 -5 5 -27 4 -54 -3 -55 -14 -59 -14 -51 -1 3 6
17 10 30 10 24 0 80 43 80 62 0 6 9 16 20 22 11 6 22 12 25 14 2 2 -1 7 -9 11
-9 6 -3 14 22 30 19 11 39 21 46 21 6 0 11 5 11 11 0 6 -7 9 -15 5 -28 -10
-15 11 39 62 30 29 63 52 73 52 15 0 16 2 3 10 -13 9 -13 11 0 20 8 5 11 10 6
10 -5 0 1 11 14 25 12 13 27 22 33 18 6 -3 7 -1 3 5 -3 6 -2 13 4 17 5 3 10 1
10 -4 0 -6 4 -11 9 -11 5 0 8 7 7 16 -1 16 78 67 88 57 3 -4 6 -1 6 5 0 18 80
52 360 152 350 126 338 119 429 265 118 190 299 513 409 727 56 108 127 243
159 300 75 136 187 349 219 418 66 139 77 168 99 254 13 50 27 133 33 184 5
53 16 100 24 110 17 20 59 92 54 92 -3 0 -19 -19 -37 -42z m-1209 -1745 c-46
-60 -55 -68 -86 -68 -21 0 -34 5 -34 13 0 6 6 12 14 12 8 0 16 4 18 8 3 7 128
101 136 102 1 0 -20 -30 -48 -67z m-165 -103 c-3 -5 -12 -10 -18 -10 -7 0 -6
4 3 10 19 12 23 12 15 0z m-340 -270 c-3 -5 -12 -10 -18 -10 -7 0 -6 4 3 10
19 12 23 12 15 0z m-585 -834 c0 -6 -93 -37 -97 -32 -2 2 15 11 39 19 47 17
58 19 58 13z"/>
<path d="M6861 7944 c0 -11 3 -14 6 -6 3 7 2 16 -1 19 -3 4 -6 -2 -5 -13z"/>
<path d="M2896 7849 c-4 -23 -5 -44 -2 -46 2 -2 7 14 11 37 4 23 5 43 2 46 -2
3 -7 -14 -11 -37z"/>
<path d="M2881 7774 c0 -11 3 -14 6 -6 3 7 2 16 -1 19 -3 4 -6 -2 -5 -13z"/>
<path d="M7100 7331 c0 -6 4 -13 10 -16 6 -3 7 1 4 9 -7 18 -14 21 -14 7z"/>
<path d="M2656 7097 c-10 -23 -20 -46 -21 -52 -2 -5 -7 -19 -11 -29 -5 -13 -4
-17 3 -13 11 7 58 125 52 132 -2 2 -13 -15 -23 -38z"/>
<path d="M6505 7039 c-4 -6 -5 -12 -2 -15 2 -3 7 2 10 11 7 17 1 20 -8 4z"/>
<path d="M7599 6953 c5 -10 9 -21 10 -26 1 -16 20 -42 26 -36 3 4 -4 23 -16
43 -21 36 -38 51 -20 19z"/>
<path d="M8175 6903 c3 -21 3 -33 0 -27 -3 6 -17 9 -30 6 -22 -4 -25 -10 -25
-43 0 -32 3 -39 20 -39 11 0 20 -4 20 -10 0 -5 7 -10 15 -10 12 0 15 -14 15
-70 0 -53 -3 -70 -14 -70 -7 0 -20 -8 -27 -17 -11 -13 -11 -15 -1 -9 8 5 18 2
25 -7 7 -9 38 -25 70 -36 53 -18 58 -19 52 -3 -4 9 -12 33 -17 52 -25 92 -100
320 -104 320 -3 0 -2 -17 1 -37z m62 -309 c-3 -3 -12 -4 -19 -1 -8 3 -5 6 6 6
11 1 17 -2 13 -5z"/>
<path d="M7340 6892 c0 -6 5 -14 12 -18 7 -5 8 -3 3 6 -5 9 -4 11 4 6 6 -4 9
-11 6 -16 -9 -15 112 -266 192 -395 44 -71 102 -170 128 -220 91 -169 285
-471 285 -442 0 9 99 -27 190 -68 44 -20 147 -59 228 -87 173 -59 300 -110
360 -144 l43 -25 -7 25 c-3 14 3 51 14 88 11 35 27 90 35 123 20 83 104 403
116 443 12 39 47 23 -309 142 -367 123 -475 172 -610 276 -68 53 -177 107
-197 100 -11 -5 -13 -14 -8 -34 6 -23 3 -21 -20 13 -15 22 -44 60 -64 85 -21
25 -46 57 -55 72 -10 15 -22 25 -27 22 -5 -3 -6 2 -3 10 12 31 -7 16 -21 -16
-13 -31 -14 -32 -15 -7 0 14 5 30 12 37 9 9 4 12 -25 12 l-37 0 0 -50 c0 -27
-4 -50 -10 -50 -25 0 -143 74 -160 100 -9 14 -60 23 -60 12z m130 -97 c14 -16
10 -18 -14 -9 -9 3 -16 10 -16 15 0 14 16 11 30 -6z m80 -50 c9 -10 9 -15 1
-15 -6 0 -11 4 -11 9 0 5 -8 12 -17 14 -15 4 -15 5 -2 6 9 0 22 -6 29 -14z
m108 -85 c7 -11 11 -20 9 -20 -2 0 -12 9 -22 20 -10 11 -14 20 -9 20 5 0 15
-9 22 -20z m156 -127 c65 -33 125 -76 119 -86 -3 -6 -1 -7 4 -4 6 4 27 -11 46
-32 20 -22 38 -37 40 -35 3 3 45 -33 93 -79 150 -141 648 -537 675 -537 5 0 9
-5 9 -11 0 -6 -29 10 -64 35 -36 25 -73 49 -83 53 -10 4 -49 25 -88 48 -131
78 -205 115 -237 119 -27 3 -43 18 -112 109 -166 217 -217 271 -301 325 -99
63 -195 139 -195 153 0 6 14 -1 31 -15 17 -15 45 -34 63 -43z"/>
<path d="M2002 6870 c0 -14 2 -19 5 -12 2 6 2 18 0 25 -3 6 -5 1 -5 -13z"/>
<path d="M6305 6845 c-155 -41 -550 -176 -665 -227 -67 -30 -126 -94 -198
-215 -48 -79 -50 -85 -34 -102 9 -10 20 -16 23 -14 4 1 9 -4 13 -12 3 -8 14
-15 25 -15 11 0 21 -5 23 -11 3 -8 14 -8 39 -1 26 7 38 6 47 -5 14 -14 36 -8
26 8 -3 5 0 8 8 7 7 -2 12 3 10 10 -1 8 2 11 6 8 10 -6 58 52 55 65 -2 5 12
15 31 23 18 8 37 19 40 25 4 6 11 11 15 11 5 0 -59 -68 -142 -151 -113 -114
-135 -140 -90 -106 33 26 100 83 149 127 58 53 114 94 163 118 66 33 85 37
163 41 108 4 138 -2 138 -29 0 -17 -7 -20 -52 -20 -77 0 -181 -25 -257 -60
-53 -25 -88 -54 -184 -152 -65 -66 -122 -129 -128 -139 -9 -17 -7 -17 30 -4
22 7 60 17 85 20 25 4 43 11 40 16 -3 5 -10 6 -16 3 -7 -4 -8 -2 -4 4 9 15 46
16 46 2 0 -5 7 -10 15 -10 13 0 14 4 5 20 -6 11 -16 18 -23 15 -7 -4 17 21 52
54 61 58 81 67 81 35 0 -27 50 -114 76 -130 15 -10 54 -19 98 -22 114 -7 147
19 185 145 l16 53 37 -35 c20 -19 38 -40 41 -47 3 -11 9 -11 26 0 33 19 25 0
-16 -40 -47 -44 -65 -54 -161 -83 -43 -13 -70 -24 -61 -24 12 -1 20 -17 27
-58 l11 -58 -4 56 -5 57 37 7 c28 5 42 2 64 -14 17 -12 30 -17 34 -11 9 15 61
12 74 -4 7 -8 23 -17 37 -20 16 -4 22 -11 18 -19 -4 -7 4 -1 18 13 13 14 22
29 20 34 -3 4 5 5 17 1 17 -5 28 1 49 26 82 97 87 102 108 91 19 -11 60 -21
79 -21 5 0 13 -8 17 -18 6 -13 7 -12 4 7 -3 14 -12 68 -21 120 -9 52 -24 106
-33 120 -9 14 -19 38 -22 55 -4 27 -10 30 -51 36 -25 4 -79 16 -120 27 -160
43 -320 50 -578 26 -79 -7 -98 7 -39 29 130 48 547 178 636 198 88 19 105 21
112 8 10 -15 10 -12 12 56 1 45 -22 121 -32 105 -7 -11 -16 -10 -49 4 -54 21
-88 20 -196 -9z m-575 -400 c0 -7 -62 -45 -73 -45 -5 0 -5 5 -2 10 3 6 2 10
-4 10 -5 0 -11 -6 -14 -12 -3 -10 -8 -10 -16 -2 -9 9 2 15 46 26 32 9 59 16
61 17 1 0 2 -1 2 -4z m305 -205 c0 -29 -38 -41 -48 -16 -10 26 4 47 27 44 15
-2 21 -10 21 -28z m61 -77 c-8 -16 -23 -38 -35 -49 -11 -12 -17 -25 -14 -28 4
-3 -1 -6 -11 -6 -9 0 -14 -4 -11 -10 3 -5 0 -7 -8 -4 -18 7 -10 44 9 44 7 0
28 18 45 40 38 47 45 50 25 13z"/>
<path d="M8140 6710 c0 -5 5 -10 10 -10 6 0 10 5 10 10 0 6 -4 10 -10 10 -5 0
-10 -4 -10 -10z"/>
<path d="M3727 6653 c-14 -14 -6 -45 12 -50 21 -5 35 -29 25 -44 -3 -5 0 -9 6
-9 6 0 8 15 4 43 -9 55 -28 80 -47 60z"/>
<path d="M3660 6531 c0 -5 5 -13 10 -16 6 -3 10 -2 10 4 0 5 -4 13 -10 16 -5
3 -10 2 -10 -4z"/>
<path d="M6410 6484 c-17 -9 -20 -14 -9 -14 9 0 22 7 29 15 15 18 13 18 -20
-1z"/>
<path d="M4060 6469 c-52 -4 -120 -12 -150 -18 -30 -7 -76 -14 -102 -18 -26
-3 -46 -8 -44 -12 2 -3 -7 -7 -21 -8 -18 -1 -22 2 -12 7 7 5 11 12 8 15 -10
10 -69 24 -69 17 -2 -80 -11 -174 -19 -189 -9 -18 -48 -135 -56 -170 -2 -10
-11 -43 -19 -73 -17 -61 -15 -78 3 -28 7 18 21 52 32 76 11 24 16 48 13 54 -4
7 -2 8 4 4 7 -4 12 -2 12 3 0 18 19 12 44 -11 12 -13 48 -52 79 -88 30 -36 78
-77 106 -93 l49 -27 24 29 c27 36 112 63 203 67 108 5 111 7 23 14 -101 10
-167 36 -220 88 -38 36 -46 52 -29 52 5 0 32 16 61 35 29 19 56 35 61 35 5 0
9 -12 9 -27 0 -40 44 -129 72 -147 33 -21 155 -32 200 -17 29 9 42 24 67 70
17 32 31 66 31 74 0 32 18 24 104 -49 l87 -74 -43 -1 c-36 0 -30 -3 43 -19 47
-10 96 -23 108 -30 33 -17 -141 186 -208 244 -91 78 -212 126 -321 126 -58 0
-82 12 -73 36 9 23 136 18 223 -10 108 -33 145 -55 235 -138 77 -70 137 -118
149 -118 3 0 -17 21 -45 47 -38 35 -48 51 -44 67 4 14 3 17 -2 9 -7 -9 -28 6
-76 56 -57 60 -78 74 -146 100 -74 29 -188 52 -236 49 -11 0 -63 -4 -115 -9z
m221 -225 c10 -13 10 -17 -2 -25 -17 -11 -21 -11 -38 0 -17 11 -7 41 12 41 8
0 20 -7 28 -16z m73 -87 c-1 -32 -23 -87 -35 -87 -4 0 -19 10 -31 23 l-23 22
34 38 c39 42 57 43 55 4z m-124 -49 c0 -16 -16 -7 -34 19 l-20 27 27 -20 c14
-10 27 -22 27 -26z m-42 -4 c-1 -5 -9 -9 -16 -10 -10 -2 -11 1 -1 12 12 14 24
13 17 -2z"/>
<path d="M4500 6422 c0 -14 8 -19 31 -20 30 -1 30 0 13 19 -22 24 -44 25 -44
1z"/>
<path d="M3541 5884 c0 -11 3 -14 6 -6 3 7 2 16 -1 19 -3 4 -6 -2 -5 -13z"/>
<path d="M3521 5784 c0 -11 3 -14 6 -6 3 7 2 16 -1 19 -3 4 -6 -2 -5 -13z"/>
<path d="M3505 5724 c-9 -50 0 -53 13 -4 5 22 6 40 2 40 -4 0 -11 -16 -15 -36z"/>
<path d="M3403 5528 c-112 -109 -404 -424 -438 -474 -16 -24 -36 -44 -42 -44
-7 0 -13 -4 -13 -9 0 -5 -22 -36 -48 -68 -27 -32 -68 -87 -92 -123 -24 -36
-76 -109 -116 -162 -83 -112 -199 -300 -218 -354 -14 -41 -13 -41 -99 -78 -33
-14 -114 -62 -180 -105 -115 -75 -135 -85 -357 -161 -379 -131 -483 -165 -705
-230 -116 -34 -232 -69 -260 -79 l-50 -18 -3 -140 -3 -139 150 -133 c83 -73
180 -165 217 -204 l68 -71 -180 -174 c-98 -96 -219 -204 -268 -241 l-88 -66 6
-74 c3 -41 6 -146 6 -235 0 -161 0 -161 19 -131 17 30 159 162 379 353 58 51
109 97 112 102 7 12 229 90 257 90 18 0 23 -7 28 -37 10 -57 13 -62 14 -20 1
55 121 526 179 702 69 210 219 642 240 690 25 58 80 117 103 110 11 -4 19 -2
19 4 0 5 17 13 38 16 20 4 60 11 88 17 62 13 104 5 104 -20 0 -10 9 -24 20
-32 11 -8 20 -22 20 -32 0 -13 8 -18 30 -18 22 0 28 -4 24 -15 -4 -8 -1 -15 7
-15 7 0 9 3 6 7 -4 3 4 21 18 39 14 18 25 37 25 43 0 6 5 11 10 11 6 0 10 8 8
18 -2 9 2 16 8 15 6 -1 20 13 30 30 37 63 60 100 142 225 103 158 194 328 218
407 10 33 19 52 22 43 2 -9 -15 -70 -37 -135 -55 -164 -89 -303 -105 -433 -2
-19 -7 -42 -11 -51 -3 -8 -8 -56 -10 -105 -6 -149 -5 -142 -15 -119 -6 14 -9
-4 -9 -55 0 -67 1 -73 14 -56 12 15 17 17 29 7 18 -15 36 -6 35 17 0 14 -2 14
-8 -2 -5 -14 -10 -16 -15 -8 -12 19 -16 52 -6 52 4 0 15 3 24 6 11 4 16 0 16
-12 0 -9 3 -15 6 -11 11 11 -8 48 -24 46 -38 -3 -44 0 -28 16 8 8 22 15 30 15
9 0 16 8 17 18 0 16 1 16 7 0 4 -10 8 9 8 42 0 32 7 66 14 75 7 8 10 24 7 35
-3 11 -1 23 4 26 6 3 8 19 5 35 -3 19 -1 27 6 23 8 -5 9 5 5 29 -3 20 -2 37 2
39 14 6 101 519 102 602 0 33 4 81 8 106 l7 45 7 -40 c3 -22 9 -71 12 -110 6
-68 23 -233 46 -445 6 -58 12 -110 12 -116 0 -6 6 -11 14 -11 9 0 10 4 3 11
-15 15 -12 46 5 46 8 0 15 7 15 15 0 8 7 15 15 15 8 0 15 -9 15 -20 0 -17 7
-20 40 -20 33 0 40 -3 40 -20 0 -18 7 -20 59 -20 52 0 61 -3 66 -21 4 -11 9
-19 11 -16 3 2 0 17 -6 32 -7 18 -7 32 -1 38 6 6 9 2 8 -9 -1 -11 3 -18 8 -17
6 1 15 -9 22 -23 6 -13 8 -22 4 -20 -4 3 -7 -6 -7 -19 0 -13 4 -21 8 -19 5 3
6 10 3 15 -4 5 -3 9 2 9 14 0 75 -128 67 -141 -4 -7 -3 -9 4 -5 6 3 14 1 18
-5 3 -6 0 -15 -7 -20 -11 -7 -11 -9 2 -9 20 0 26 -29 33 -145 6 -87 1 -84 -9
8 -5 47 -10 57 -26 57 -10 0 -19 7 -19 15 0 8 -9 15 -20 15 -11 0 -20 5 -20
10 0 6 -9 10 -20 10 -11 0 -20 -4 -20 -10 0 -5 -18 -10 -40 -10 l-40 0 0 -60
c0 -33 -4 -60 -10 -60 -5 0 -10 -9 -10 -19 0 -11 -5 -21 -12 -23 -24 -8 -43
-272 -21 -287 21 -13 8 -45 -41 -96 -28 -29 -59 -56 -68 -61 -21 -11 -53 -155
-68 -303 -5 -57 -10 -107 -10 -113 0 -5 -4 -7 -8 -4 -5 3 -14 -74 -21 -172 -7
-97 -20 -274 -30 -392 -10 -118 -14 -216 -9 -218 4 -2 8 -24 8 -48 0 -28 -4
-43 -10 -39 -7 4 -7 -2 0 -19 5 -15 5 -28 0 -31 -5 -3 -11 5 -13 17 -3 13 -4
6 -4 -15 1 -35 -5 -45 -58 -95 -33 -30 -103 -96 -155 -146 -52 -50 -144 -136
-205 -190 -60 -55 -150 -138 -200 -185 -49 -48 -114 -107 -143 -132 l-54 -45
33 -95 c18 -51 62 -161 99 -244 37 -82 73 -168 80 -190 7 -22 26 -65 41 -95
16 -30 34 -77 40 -105 7 -27 13 -56 15 -63 2 -7 19 -19 39 -27 42 -18 300 -75
288 -65 -4 5 -72 43 -150 85 -79 42 -143 83 -143 90 0 37 132 154 283 251 17
11 75 49 127 85 52 36 102 68 111 71 10 4 23 -6 40 -31 13 -20 39 -52 56 -71
18 -19 70 -82 116 -140 46 -58 109 -131 139 -163 l55 -57 6 82 c4 46 9 200 12
343 3 143 8 298 10 345 21 359 37 611 49 760 8 96 20 267 26 380 6 113 15 246
20 297 6 51 10 121 10 155 0 70 9 138 19 138 26 0 268 -791 272 -892 2 -32 2
-31 8 7 l6 39 77 -79 c42 -44 102 -114 133 -155 31 -41 97 -114 147 -161 52
-50 89 -92 86 -100 -2 -8 -36 -31 -74 -51 -38 -21 -87 -58 -110 -83 -22 -25
-43 -45 -47 -45 -3 0 -28 -13 -54 -30 -26 -16 -52 -30 -58 -30 -6 0 -28 26
-48 58 -35 54 -81 109 -258 304 -75 82 -165 161 -129 113 33 -45 53 -64 63
-58 6 3 7 1 3 -5 -11 -18 181 -267 281 -363 l64 -62 -24 -21 c-23 -19 -143
-245 -238 -446 -20 -41 -65 -127 -100 -190 -78 -138 -134 -258 -126 -267 4 -3
24 5 44 19 21 14 76 50 123 79 47 29 135 85 195 125 108 71 348 200 453 242
34 13 55 29 61 44 5 13 14 88 20 168 26 328 46 473 71 519 17 32 -86 360 -244
773 -61 160 -96 348 -121 648 -9 102 -22 228 -30 280 -16 107 -29 270 -22 270
8 0 92 -115 89 -122 -1 -5 3 -8 9 -8 5 0 7 -5 3 -12 -4 -6 -3 -8 4 -4 6 4 69
-58 148 -146 75 -84 171 -191 213 -238 211 -235 692 -700 723 -700 15 1 384
363 702 690 121 124 212 214 204 200 -35 -55 -59 -156 -107 -450 -11 -63 -23
-128 -27 -144 -5 -21 -4 -27 5 -22 14 9 15 -6 1 -22 -7 -9 -7 -9 2 -2 7 5 47
10 90 10 71 0 78 -2 78 -20 0 -13 7 -20 20 -20 17 0 20 -7 20 -40 l0 -40 40 0
c32 0 40 -4 40 -18 0 -10 -5 -23 -12 -30 -6 -6 -9 -15 -5 -18 7 -7 57 97 87
181 10 28 50 118 90 200 40 83 92 201 116 264 24 62 63 145 87 185 25 39 64
107 87 151 24 44 47 85 53 90 21 21 -3 -110 -42 -233 -22 -70 -68 -220 -101
-334 -34 -115 -68 -225 -76 -245 -34 -81 -135 -292 -179 -373 -26 -47 -78
-145 -117 -219 -64 -122 -119 -215 -217 -359 -20 -30 -40 -61 -46 -70 -5 -9
-14 -20 -18 -23 -4 -3 -4 -17 1 -30 5 -13 17 -66 28 -118 18 -91 36 -120 55
-90 6 10 9 6 9 -13 0 -16 9 -37 20 -48 11 -11 20 -25 20 -30 0 -6 4 -18 10
-28 19 -35 82 -207 97 -266 8 -33 22 -73 29 -88 8 -15 14 -47 14 -71 l0 -43
73 -41 c176 -98 207 -116 287 -168 47 -29 99 -61 115 -71 17 -9 53 -32 82 -51
29 -19 56 -32 61 -29 5 3 14 -6 21 -21 6 -14 14 -24 16 -21 10 10 -102 260
-234 523 -193 386 -212 416 -297 481 -38 29 -74 53 -80 54 -6 0 -17 7 -24 15
-7 9 -15 13 -18 11 -2 -3 -25 12 -49 34 -25 21 -68 47 -96 56 -29 10 -46 19
-39 21 6 3 12 13 12 24 0 21 15 26 24 7 5 -10 7 -10 12 0 3 6 10 12 14 12 15
0 61 51 55 61 -4 5 2 9 12 9 10 0 26 10 35 23 9 12 50 67 91 122 41 55 111
140 155 189 44 49 82 98 85 110 59 249 143 553 177 636 24 58 51 127 60 153
24 66 30 43 30 -106 0 -67 4 -183 10 -257 5 -74 12 -211 15 -305 4 -93 11
-175 16 -181 5 -6 7 -19 3 -28 -10 -25 6 -127 18 -120 7 4 8 -5 3 -27 -4 -19
-8 -36 -8 -39 -3 -17 15 -509 20 -527 2 -12 10 -20 16 -17 7 2 107 -96 222
-217 116 -122 235 -239 265 -260 30 -21 67 -48 83 -60 15 -11 27 -18 27 -14 0
3 6 1 13 -4 62 -51 146 -109 151 -104 3 4 6 1 6 -5 0 -7 7 -12 17 -12 14 0 14
2 2 18 -9 9 -30 49 -48 87 -18 39 -43 84 -55 100 -13 17 -35 53 -51 80 -39 68
-184 298 -266 420 -95 144 -154 267 -175 365 -11 55 -11 345 1 318 5 -13 34
-66 64 -118 30 -52 78 -135 106 -185 28 -49 73 -124 98 -165 105 -166 317
-619 382 -815 13 -38 42 -124 65 -190 31 -88 38 -121 29 -124 -7 -2 -42 -20
-78 -39 -37 -19 -96 -50 -133 -69 -37 -18 -69 -37 -72 -41 -6 -10 184 22 287
48 208 54 243 71 251 122 3 18 13 103 22 190 15 132 19 154 31 142 9 -9 13
-34 12 -76 -3 -82 9 -148 26 -148 7 0 15 -6 17 -12 4 -10 10 -10 32 0 15 6 25
16 21 21 -3 5 8 12 23 16 15 3 71 43 124 88 52 45 122 101 154 125 81 59 203
151 248 186 20 16 39 26 43 22 12 -12 -2 -239 -23 -364 -5 -34 -4 -41 7 -37
21 9 103 123 138 192 25 51 60 163 61 195 0 4 -17 12 -38 17 -52 15 -113 55
-216 147 -50 43 -140 122 -202 174 -199 169 -459 403 -466 420 -9 23 -35 350
-53 660 -8 140 -18 271 -22 290 -8 33 -16 39 -149 105 -156 78 -198 101 -329
186 -50 32 -108 65 -130 74 -36 15 -27 4 85 -110 69 -70 143 -141 166 -159 23
-17 68 -53 100 -81 33 -27 70 -57 82 -65 l23 -15 -46 -65 c-48 -67 -198 -307
-278 -441 -24 -42 -63 -102 -86 -132 l-41 -56 22 -12 c20 -11 21 -10 11 2 -10
13 12 30 142 107 85 51 157 97 160 102 3 6 10 10 15 10 11 0 115 -137 115
-153 0 -6 5 -12 12 -12 17 0 64 -66 56 -78 -3 -6 -1 -7 5 -3 11 7 38 -32 34
-47 -1 -5 2 -6 7 -3 5 3 16 -5 25 -19 22 -33 20 -43 -3 -16 -12 13 -22 18 -26
11 -10 -16 -65 -13 -65 4 0 11 -10 13 -42 8 -62 -8 -67 -16 -60 -100 4 -57 2
-76 -9 -83 -10 -6 -10 -9 -1 -9 6 0 12 -7 12 -15 0 -9 6 -15 13 -13 7 2 13 -1
13 -7 0 -5 -7 -9 -16 -7 -13 2 -13 1 0 -10 8 -7 23 -26 33 -41 10 -15 23 -25
29 -21 6 4 8 3 5 -3 -7 -12 26 -46 36 -38 4 3 5 2 2 -1 -8 -12 16 -45 27 -38
6 4 8 3 5 -3 -4 -6 2 -22 14 -34 11 -13 18 -18 14 -11 -3 6 -1 12 5 12 7 0 9
-7 6 -16 -8 -20 12 -47 27 -37 5 3 7 2 4 -4 -4 -5 18 -39 47 -75 57 -69 81
-107 72 -115 -4 -5 -167 153 -643 623 -102 100 -133 137 -133 157 0 14 -3 27
-8 29 -27 12 -346 534 -335 551 3 6 1 7 -5 3 -11 -7 -41 43 -75 126 -15 36
-15 37 4 25 10 -6 19 -20 19 -29 0 -11 8 -18 19 -18 11 0 23 -12 31 -30 8 -18
20 -30 31 -30 12 0 19 -7 19 -19 0 -14 8 -21 28 -23 23 -3 27 -8 30 -40 l3
-38 60 0 c34 0 59 -4 59 -10 0 -6 16 -10 35 -8 31 2 35 5 35 29 0 16 -5 31
-11 35 -8 4 -7 9 2 15 8 5 10 9 4 9 -9 0 -12 26 -16 147 -1 29 -5 51 -8 49 -3
-2 -7 35 -8 82 -1 48 -9 134 -17 192 -9 58 -18 184 -21 280 -3 96 -8 220 -11
275 -7 101 -6 266 1 340 6 61 33 379 40 475 3 47 10 114 15 150 5 36 12 135
16 220 8 162 17 171 28 30 4 -47 43 -301 86 -565 44 -264 82 -502 85 -530 4
-27 11 -65 17 -83 l10 -33 19 22 c44 51 50 172 19 364 -36 224 -51 310 -71
398 -11 49 -18 91 -15 94 2 3 17 -15 31 -39 44 -70 136 -214 191 -296 28 -43
86 -135 128 -206 66 -110 132 -215 183 -292 7 -11 4 1 -6 25 -11 24 -26 52
-35 63 -20 22 -9 24 16 1 17 -15 18 -15 18 5 0 19 6 22 38 22 26 0 42 6 52 20
8 12 26 20 42 20 18 0 29 6 33 20 5 15 15 20 41 20 27 0 34 4 34 19 0 14 10
20 41 24 23 3 46 11 51 19 6 9 7 6 3 -9 -5 -17 -3 -21 7 -18 19 7 33 -23 58
-120 11 -44 33 -127 50 -185 17 -58 45 -161 64 -230 19 -69 40 -138 46 -155
14 -37 108 -368 148 -525 17 -63 34 -146 37 -184 l8 -69 18 48 c10 27 22 52
26 56 9 9 187 -47 240 -74 15 -8 51 -18 78 -22 28 -4 104 -15 170 -26 121 -19
275 -26 275 -11 0 11 -192 198 -290 282 -82 70 -220 206 -220 216 0 28 122
156 275 288 50 43 105 91 123 106 l33 29 -3 147 -3 147 -40 13 c-138 43 -393
116 -463 133 -46 12 -201 68 -345 125 -144 57 -298 116 -342 130 -44 14 -120
49 -170 77 -49 28 -119 66 -155 84 -64 32 -67 36 -108 117 -22 45 -65 113 -94
149 -52 65 -160 205 -325 420 -46 59 -83 110 -83 112 0 13 96 -34 190 -94 135
-85 152 -93 227 -109 l63 -13 39 36 c22 20 64 47 93 60 54 25 206 67 242 67
10 0 17 3 13 6 -3 3 -45 0 -94 -6 -232 -30 -229 -30 -353 2 -120 31 -345 67
-417 68 -40 0 -45 4 -175 142 -73 78 -198 206 -278 284 l-145 142 -36 -77
c-20 -42 -46 -103 -59 -136 -48 -124 -133 -321 -150 -350 -20 -33 -144 -322
-184 -427 -14 -38 -21 -68 -16 -68 6 0 10 3 10 8 0 19 135 190 268 340 53 60
119 135 145 166 27 31 52 56 56 56 9 0 -8 -118 -33 -235 -46 -212 -87 -465
-101 -614 -6 -58 -12 -79 -29 -93 -11 -10 -72 -60 -134 -110 -62 -51 -134
-110 -160 -132 -26 -21 -90 -77 -141 -125 -52 -47 -99 -85 -103 -83 -4 1 -7
-4 -6 -10 2 -7 -9 -14 -24 -16 -19 -2 -25 -8 -21 -18 6 -17 -13 -19 -21 -1 -3
6 -4 0 -1 -16 3 -15 2 -27 -2 -26 -25 4 -83 -35 -70 -47 3 -3 14 4 24 15 9 12
22 21 27 21 5 0 -3 -14 -19 -30 -19 -20 -32 -27 -39 -20 -6 6 -16 -1 -28 -20
-10 -17 -22 -30 -28 -30 -5 0 -10 -6 -10 -13 0 -6 -37 -51 -82 -98 -125 -130
-182 -152 -503 -198 -147 -21 -157 -21 -350 7 -77 11 -169 23 -205 27 -48 5
-71 12 -90 30 -14 13 -51 38 -82 57 -58 34 -78 52 -433 393 -115 111 -232 222
-260 246 -129 115 -184 159 -218 175 -40 19 -41 21 -57 159 -15 123 -53 358
-89 546 -32 164 -39 224 -29 234 3 4 21 -15 39 -42 29 -43 129 -159 342 -397
39 -43 73 -74 75 -68 5 16 -89 239 -268 632 -61 134 -131 311 -128 323 1 7 -3
22 -10 33 -23 43 -41 37 -119 -38z m-185 -1128 c0 -9 -3 -7 -8 5 -5 11 -8 29
-8 40 0 16 2 15 8 -5 4 -14 8 -32 8 -40z m37 -10 c13 -26 14 -29 0 -24 -8 4
-15 10 -15 14 0 5 -3 15 -6 24 -11 28 5 17 21 -14z m5778 -861 c35 -12 38 -16
33 -42 -3 -16 -9 -119 -12 -230 -4 -111 -10 -211 -15 -222 -7 -17 -8 -18 -8
-2 -1 10 -23 64 -50 120 -48 101 -116 200 -220 322 -28 33 -76 93 -108 134
l-57 73 22 19 c22 18 25 17 200 -70 97 -49 194 -94 215 -102z m-7375 168 c-12
-10 -14 -17 -6 -31 7 -13 6 -22 -6 -34 -59 -64 -162 -185 -192 -227 -19 -27
-74 -104 -121 -170 -47 -66 -92 -136 -101 -155 l-15 -35 -9 30 c-5 17 -12 118
-15 225 l-6 195 209 93 c115 51 223 99 239 107 38 17 45 18 23 2z m1562 -127
c0 -5 -4 -10 -10 -10 -5 0 -10 5 -10 10 0 6 5 10 10 10 6 0 10 -4 10 -10z
m3059 -512 c-1 -27 -17 -70 -18 -49 -1 8 -4 11 -7 8 -4 -4 -2 -12 3 -19 7 -9
6 -38 -3 -93 -7 -44 -14 -98 -15 -120 -1 -39 -2 -39 -9 -10 -7 28 -8 29 -9 5
-2 -25 -2 -25 -11 -2 -8 19 -16 22 -70 22 l-60 0 0 60 0 60 40 0 c33 0 40 3
40 20 0 13 7 20 20 20 15 0 20 7 20 26 0 27 14 46 43 57 9 3 17 13 17 22 0 8
5 15 10 15 6 0 10 -10 9 -22z m-52 -400 c-3 -7 -5 -2 -5 12 0 14 2 19 5 13 2
-7 2 -19 0 -25z m-3012 -527 c-9 -27 -23 -55 -30 -61 -11 -9 -10 0 4 36 11 27
22 58 25 68 4 10 9 16 12 13 3 -3 -1 -28 -11 -56z m3822 37 c-3 -8 -6 -5 -6 6
-1 11 2 17 5 13 3 -3 4 -12 1 -19z m-3897 -209 c0 -6 9 -22 20 -36 13 -17 20
-41 20 -68 0 -56 -41 -196 -78 -265 -16 -30 -62 -118 -102 -195 -87 -166 -158
-282 -209 -345 -20 -25 -53 -70 -73 -100 -21 -30 -60 -82 -88 -115 -28 -33
-64 -83 -80 -112 -55 -98 -63 -68 -12 47 13 30 44 111 69 180 24 68 57 147 72
175 16 27 51 102 79 165 28 63 101 205 162 315 61 110 130 237 153 282 23 46
48 83 55 83 6 0 12 -5 12 -11z m4700 -174 c0 -8 -4 -15 -10 -15 -5 0 -10 7
-10 15 0 8 5 15 10 15 6 0 10 -7 10 -15z m-1860 -296 c0 -5 -4 -9 -10 -9 -5 0
-10 7 -10 16 0 8 5 12 10 9 6 -3 10 -10 10 -16z m828 -955 c-4 -3 -12 5 -18
18 -12 22 -12 22 6 6 10 -10 15 -20 12 -24z"/>
<path d="M1631 3654 c0 -11 3 -14 6 -6 3 7 2 16 -1 19 -3 4 -6 -2 -5 -13z"/>
<path d="M8191 5423 c18 -32 41 -70 51 -84 9 -15 50 -87 89 -160 39 -74 82
-149 96 -166 13 -18 20 -33 16 -33 -4 0 12 -10 36 -22 24 -12 82 -58 130 -102
160 -151 310 -271 374 -302 38 -18 40 -24 53 -124 8 -68 28 -120 47 -120 9 0
19 24 29 73 21 98 73 226 169 419 44 88 78 166 76 172 -4 9 -183 70 -467 158
-226 71 -540 216 -675 313 -55 39 -57 37 -24 -22z m670 -578 c7 -13 3 -12 -10
5 -11 14 -21 30 -21 35 0 11 14 -7 31 -40z"/>
<path d="M1213 5093 c9 -2 23 -2 30 0 6 3 -1 5 -18 5 -16 0 -22 -2 -12 -5z"/>
<path d="M4830 4968 c-34 -24 -69 -47 -77 -53 -11 -8 -21 -2 -44 25 -33 39
-38 30 -9 -17 24 -40 47 -55 152 -99 53 -23 92 -34 109 -30 20 4 38 -5 80 -40
63 -51 90 -55 143 -19 21 14 68 34 104 44 74 20 181 71 200 94 24 28 -2 61
-77 101 -80 42 -74 43 -173 -32 -76 -58 -94 -66 -102 -45 -5 12 -9 11 -24 -7
l-18 -22 -59 46 c-61 47 -131 96 -139 96 -2 0 -32 -19 -66 -42z"/>
<path d="M2850 4989 c0 -6 -5 -7 -10 -4 -6 4 -25 2 -43 -4 -33 -11 -311 -51
-407 -58 -32 -2 -119 7 -210 21 -149 25 -198 31 -189 22 2 -3 47 -12 99 -21
124 -21 170 -35 170 -52 0 -7 5 -13 10 -13 6 0 10 -13 10 -30 0 -25 4 -30 25
-30 18 0 25 -5 25 -20 0 -11 5 -20 10 -20 6 0 10 -6 10 -14 0 -8 5 -18 12 -22
7 -5 8 -3 3 6 -6 10 -3 12 13 8 12 -4 22 -2 22 4 0 5 4 7 9 4 4 -3 57 11 116
31 79 26 128 50 184 89 74 52 149 98 163 99 17 1 15 11 -2 12 -11 1 -20 -3
-20 -8z"/>
<path d="M8288 4983 c7 -3 16 -2 19 1 4 3 -2 6 -13 5 -11 0 -14 -3 -6 -6z"/>
<path d="M8238 4973 c7 -3 16 -2 19 1 4 3 -2 6 -13 5 -11 0 -14 -3 -6 -6z"/>
<path d="M5220 4494 c-56 -25 -68 -33 -48 -34 15 0 33 6 40 13 7 7 34 21 61
31 26 10 47 20 47 22 0 9 -29 0 -100 -32z"/>
<path d="M6265 4434 c-24 -53 -43 -100 -40 -104 3 -5 -1 -11 -7 -13 -7 -3 4
-3 25 0 l37 6 0 -42 0 -41 40 0 40 0 0 -40 c0 -33 3 -40 20 -40 17 0 20 7 20
40 0 38 2 40 30 40 23 0 30 4 30 20 0 39 78 16 80 -23 0 -5 -7 -1 -16 7 -30
31 -44 20 -44 -34 0 -46 2 -50 23 -50 31 0 40 -10 24 -28 -10 -13 -9 -14 3 -7
8 5 21 10 28 11 23 4 25 12 13 56 -14 51 -84 154 -101 150 -6 -1 -9 2 -5 8 5
9 -12 30 -122 147 l-32 34 -46 -97z m155 -124 c0 -5 -4 -10 -10 -10 -5 0 -10
5 -10 10 0 6 5 10 10 10 6 0 10 -4 10 -10z"/>
<path d="M4970 4515 c0 -3 12 -11 28 -19 15 -8 21 -15 15 -16 -7 0 -13 -11
-13 -24 0 -13 -7 -29 -15 -36 -9 -7 -13 -21 -10 -31 9 -28 -25 -36 -145 -33
-75 2 -101 0 -90 -7 11 -8 6 -9 -20 -5 -19 3 -54 8 -77 12 -47 7 -59 24 -17
24 27 0 60 15 83 37 13 14 59 12 114 -3 15 -5 17 1 15 40 -2 25 -4 46 -6 46
-1 0 -19 -7 -40 -16 -52 -22 -233 -54 -307 -54 -48 0 -79 8 -144 36 -46 19
-85 33 -88 31 -10 -11 26 -51 90 -99 37 -27 67 -54 67 -60 0 -5 4 -7 9 -4 5 3
51 -5 103 -18 51 -14 165 -34 252 -46 87 -11 163 -23 167 -26 5 -3 -12 -46
-37 -96 -25 -49 -44 -92 -42 -93 2 -2 24 38 50 88 l47 92 173 0 c146 1 195 5
318 28 265 51 337 72 421 128 135 88 155 132 32 68 -89 -46 -182 -42 -401 16
-52 14 -95 25 -95 25 -1 0 -2 -20 -2 -44 0 -35 -7 -53 -31 -82 -17 -21 -37
-39 -45 -42 -11 -3 -11 -2 1 7 12 9 10 11 -11 11 -20 0 -28 6 -33 25 -4 16
-13 25 -26 25 -17 0 -20 7 -20 41 0 24 -4 38 -10 34 -5 -3 -10 -20 -10 -36 0
-25 -5 -30 -30 -35 -21 -5 -30 -12 -30 -25 0 -11 -4 -19 -9 -19 -10 0 -21 34
-21 68 0 15 -9 26 -27 34 -16 6 -52 21 -80 34 -29 13 -53 21 -53 19z m110 -66
c0 -14 -16 -11 -29 5 -10 12 -8 13 8 9 12 -3 21 -9 21 -14z m567 -85 c-3 -3
-12 -4 -19 -1 -8 3 -5 6 6 6 11 1 17 -2 13 -5z m-790 -28 c3 -3 -14 -6 -40 -6
-25 0 -48 3 -50 8 -6 8 81 7 90 -2z m583 -2 c0 -2 -15 -4 -32 -4 -23 0 -29 3
-19 9 12 8 51 4 51 -5z m53 -1 c-7 -2 -19 -2 -25 0 -7 3 -2 5 12 5 14 0 19 -2
13 -5z"/>
<path d="M4430 4316 c0 -33 162 -214 265 -296 76 -60 128 -86 218 -110 40 -10
92 -26 116 -34 24 -9 48 -13 54 -9 6 3 7 1 3 -5 -4 -7 -2 -12 3 -12 6 0 11 5
11 10 0 15 38 12 66 -6 22 -15 24 -15 18 0 -5 13 2 16 47 16 61 0 101 9 94 20
-2 4 24 15 58 24 49 13 81 32 148 86 95 76 202 188 193 202 -3 5 0 7 6 6 6 -2
19 8 28 22 16 25 16 25 -4 8 -22 -19 -35 -23 -33 -10 5 32 -3 52 -21 52 -11 0
-20 5 -20 12 0 6 -7 5 -18 -5 -15 -13 -21 -14 -32 -4 -10 9 -11 9 -6 0 5 -9
-1 -13 -18 -13 -45 0 -56 -10 -56 -52 0 -35 -7 -47 -59 -100 -56 -58 -58 -62
-50 -97 8 -37 6 -36 -28 16 -7 10 -5 -1 4 -25 12 -32 13 -46 5 -54 -13 -13
-284 -41 -292 -30 -3 4 -43 8 -90 10 -80 3 -188 17 -197 26 -3 2 0 20 5 39 9
33 8 36 -17 43 -14 4 -29 8 -33 8 -3 1 -10 5 -15 10 -5 5 -2 6 7 2 8 -4 6 0
-4 8 -11 9 -24 22 -29 28 -6 10 -8 9 -4 -3 3 -9 -1 -16 -9 -16 -7 0 -11 4 -8
9 3 4 0 8 -5 8 -6 0 -11 -3 -11 -7 0 -5 -11 -13 -24 -19 -20 -9 -31 -8 -56 7
-18 12 -28 24 -24 31 4 6 3 8 -3 5 -12 -8 -66 48 -132 137 -28 38 -51 66 -51
62z"/>
<path d="M6196 4284 c-3 -7 2 -10 15 -7 22 6 26 20 4 20 -8 0 -16 -6 -19 -13z"/>
<path d="M6182 4255 c4 -4 1 -14 -7 -22 -8 -8 -15 -19 -15 -25 0 -6 1 -9 3 -7
1 2 10 14 20 26 15 17 16 23 5 29 -7 4 -10 4 -6 -1z"/>
<path d="M5310 4200 c6 -11 13 -20 16 -20 2 0 0 9 -6 20 -6 11 -13 20 -16 20
-2 0 0 -9 6 -20z"/>
<path d="M4680 4194 c0 -5 7 -20 16 -32 8 -12 13 -26 10 -31 -6 -9 23 -25 31
-17 3 2 -9 23 -26 47 -17 23 -31 38 -31 33z"/>
<path d="M6126 4135 c-16 -33 -30 -64 -33 -70 -2 -5 9 6 25 25 17 19 28 39 25
43 -3 5 0 13 7 17 6 4 10 16 8 26 -4 14 -13 2 -32 -41z"/>
<path d="M5336 4157 c3 -10 9 -15 12 -12 3 3 0 11 -7 18 -10 9 -11 8 -5 -6z"/>
<path d="M5260 4068 c-41 -12 -70 -23 -65 -25 6 -1 48 8 95 21 47 13 76 24 65
24 -11 0 -54 -9 -95 -20z"/>
<path d="M4938 4073 c12 -2 32 -2 45 0 12 2 2 4 -23 4 -25 0 -35 -2 -22 -4z"/>
<path d="M5090 4040 c8 -5 20 -10 25 -10 6 0 3 5 -5 10 -8 5 -19 10 -25 10 -5
0 -3 -5 5 -10z"/>
<path d="M6057 3988 c-15 -34 -25 -63 -22 -66 2 -3 9 6 14 19 5 13 16 42 25
63 9 22 15 41 13 43 -2 1 -16 -25 -30 -59z"/>
<path d="M4160 4021 c0 -6 4 -13 10 -16 6 -3 7 1 4 9 -7 18 -14 21 -14 7z"/>
<path d="M4210 3928 c0 -11 30 -78 35 -78 3 0 -2 17 -10 37 -15 36 -25 52 -25
41z"/>
<path d="M6017 3903 c-4 -3 -7 -11 -7 -17 0 -6 5 -5 12 2 6 6 9 14 7 17 -3 3
-9 2 -12 -2z"/>
<path d="M5956 3785 c-9 -26 -7 -32 5 -12 6 10 9 21 6 23 -2 3 -7 -2 -11 -11z"/>
<path d="M5937 3736 c-4 -10 -1 -13 8 -9 8 3 12 9 9 14 -7 12 -11 11 -17 -5z"/>
<path d="M5900 3639 c0 -5 5 -7 10 -4 6 3 10 8 10 11 0 2 -4 4 -10 4 -5 0 -10
-5 -10 -11z"/>
<path d="M5867 3565 c-9 -19 -15 -35 -12 -35 7 0 37 61 33 66 -3 2 -12 -12
-21 -31z"/>
<path d="M2654 3448 c-17 -24 -45 -78 -41 -78 7 0 59 82 54 86 -2 3 -8 -1 -13
-8z"/>
<path d="M2950 3210 c-14 -11 -72 -50 -130 -86 -58 -36 -135 -87 -173 -113
-74 -51 -116 -74 -539 -280 -159 -77 -288 -146 -288 -152 0 -6 16 -40 36 -76
19 -36 34 -67 32 -69 -2 -2 -20 26 -38 62 -19 37 -41 69 -48 71 -13 5 -261
-113 -297 -141 -30 -24 -288 -182 -364 -224 -36 -19 -84 -48 -106 -62 -55 -37
-195 -108 -279 -140 l-68 -26 103 -86 c91 -74 479 -466 479 -482 0 -3 -57 -65
-128 -137 -123 -127 -139 -148 -116 -156 16 -5 159 121 206 183 35 47 43 53
49 38 6 -18 6 -18 12 1 3 11 8 35 12 52 7 35 55 83 161 162 32 25 73 57 89 72
54 49 213 158 272 188 75 37 178 64 212 57 25 -6 24 -5 -6 15 -20 13 -33 29
-33 42 0 16 -3 18 -9 9 -6 -10 -10 -10 -21 3 -11 14 -9 15 24 10 42 -7 71 14
63 45 -3 11 -1 18 4 14 19 -11 7 21 -37 103 -47 88 -138 303 -130 310 2 3 9
-5 16 -16 8 -16 20 -21 50 -21 33 0 40 -3 40 -20 0 -13 7 -20 20 -20 11 0 20
-4 20 -10 0 -5 9 -10 20 -10 17 0 20 -7 20 -40 0 -33 -3 -40 -20 -40 -18 0
-20 -7 -20 -60 0 -53 2 -60 20 -60 23 0 27 -28 8 -49 -11 -11 -10 -12 1 -6 9
5 12 4 8 -2 -7 -10 19 -88 36 -110 5 -7 18 -13 28 -13 11 0 19 -6 19 -14 0
-20 -17 -29 -24 -14 -3 7 -3 2 0 -12 3 -14 13 -31 22 -37 14 -12 13 -16 -9
-40 l-24 -28 28 24 c15 14 27 30 27 38 0 7 21 36 48 65 26 29 75 88 110 130
38 45 69 75 77 72 7 -3 16 -1 20 5 4 7 -1 8 -12 4 -11 -4 -2 11 21 38 49 54
64 60 96 40 l25 -15 -19 22 c-11 12 -25 22 -33 22 -8 0 -12 4 -9 9 11 17 296
-149 359 -207 28 -27 35 -17 16 21 -7 12 -85 139 -174 282 -89 143 -176 285
-193 315 l-31 55 27 13 c28 12 132 101 239 204 35 33 84 95 109 137 25 42 64
95 87 119 44 45 47 53 7 22z m-725 -966 c-3 -24 -10 -46 -14 -49 -10 -5 -5 88
6 119 7 20 7 20 11 -3 2 -13 1 -44 -3 -67z m-145 -94 c0 -5 -4 -10 -10 -10 -5
0 -10 5 -10 10 0 6 5 10 10 10 6 0 10 -4 10 -10z m-241 -90 c5 0 17 -12 26
-27 18 -27 18 -27 -21 4 -21 17 -55 48 -74 69 -35 38 -35 38 12 -4 26 -23 52
-42 57 -42z m281 -75 c0 -5 -5 -3 -10 5 -5 8 -10 20 -10 25 0 6 5 3 10 -5 5
-8 10 -19 10 -25z"/>
<path d="M8013 2806 c13 -10 18 -24 14 -43 -2 -15 -2 -22 0 -15 3 6 12 12 21
12 31 0 102 -30 122 -50 12 -12 25 -18 30 -15 6 4 10 1 10 -5 0 -6 5 -8 10 -5
6 3 10 2 10 -3 0 -10 52 -34 80 -37 9 -1 27 -8 40 -15 27 -15 65 -21 53 -9 -4
4 -44 23 -88 43 -44 19 -120 55 -170 79 -63 32 -92 42 -97 34 -5 -8 -8 -6 -8
5 0 10 -10 22 -22 28 -21 10 -22 10 -5 -4z"/>
<path d="M6970 2720 c0 -13 18 -22 24 -11 3 5 -1 11 -9 15 -8 3 -15 1 -15 -4z"/>
<path d="M8420 2594 c0 -8 -19 -51 -41 -97 -34 -66 -89 -197 -89 -210 0 -2 17
-4 37 -5 21 -2 41 -9 46 -17 5 -10 17 -12 38 -8 22 4 36 0 52 -15 12 -11 34
-25 49 -31 23 -9 30 -7 43 12 8 12 15 17 15 11 0 -15 -35 -45 -43 -37 -4 3 -7
-1 -7 -11 0 -10 -5 -14 -12 -10 -6 4 -8 3 -5 -3 17 -27 -246 -256 -345 -300
-21 -9 -38 -19 -38 -22 0 -3 51 -7 112 -8 138 -3 194 -15 239 -54 18 -16 37
-29 41 -29 5 0 27 -16 50 -36 24 -20 10 -5 -29 33 -79 74 -86 93 -60 156 13
31 38 125 42 156 2 23 17 55 29 63 5 3 11 14 12 24 2 9 15 28 31 41 48 40 146
104 154 101 5 -2 71 -65 148 -141 l140 -138 -14 -82 c-8 -45 -22 -120 -30
-167 -9 -47 -16 -121 -17 -165 0 -76 -1 -78 -8 -30 -5 32 -7 -1 -4 -88 3 -76
9 -148 14 -160 7 -17 8 -12 5 18 -4 29 -3 34 4 20 11 -25 51 -62 51 -47 0 6
-3 12 -7 14 -5 2 -18 18 -31 36 -16 23 -21 39 -16 55 10 32 363 386 475 476
l96 78 -211 108 c-255 130 -281 146 -516 300 -197 129 -400 236 -400 209z
m235 -284 c-21 -22 -42 -40 -47 -40 -7 0 73 79 82 80 2 0 -14 -18 -35 -40z
m-55 -54 c0 -3 -4 -8 -10 -11 -5 -3 -10 -1 -10 4 0 6 5 11 10 11 6 0 10 -2 10
-4z m378 -782 c-3 -27 -4 -26 -9 8 -3 22 -1 34 4 29 5 -5 7 -21 5 -37z"/>
<path d="M7290 2520 c-12 -7 -12 -11 -2 -20 6 -5 10 -7 7 -4 -3 4 0 13 6 21
13 15 10 16 -11 3z"/>
<path d="M6167 2473 c-4 -3 -7 -11 -7 -17 0 -6 5 -5 12 2 6 6 9 14 7 17 -3 3
-9 2 -12 -2z"/>
<path d="M7300 2471 c0 -6 5 -13 10 -16 6 -3 10 1 10 9 0 9 -4 16 -10 16 -5 0
-10 -4 -10 -9z"/>
<path d="M6133 2405 c-3 -9 -3 -18 -1 -21 3 -3 8 4 11 16 6 23 -1 27 -10 5z"/>
<path d="M7332 2210 c0 -19 2 -27 5 -17 2 9 2 25 0 35 -3 9 -5 1 -5 -18z"/>
<path d="M9360 2196 c0 -2 8 -10 18 -17 15 -13 16 -12 3 4 -13 16 -21 21 -21
13z"/>
<path d="M2460 2169 c0 -5 5 -7 10 -4 6 3 10 8 10 11 0 2 -4 4 -10 4 -5 0 -10
-5 -10 -11z"/>
<path d="M9440 2118 c24 -27 45 -48 47 -48 8 0 0 9 -44 50 l-48 45 45 -47z"/>
<path d="M7342 2130 c0 -14 2 -19 5 -12 2 6 2 18 0 25 -3 6 -5 1 -5 -13z"/>
<path d="M9520 2035 c14 -17 26 -32 28 -34 1 -2 2 6 2 19 0 13 -3 20 -7 17 -3
-4 -16 1 -27 10 -16 13 -14 10 4 -12z"/>
<path d="M2697 1940 c-3 -11 -17 -24 -31 -30 -14 -5 -26 -14 -26 -20 0 -6 18
1 39 16 25 16 38 31 34 40 -7 19 -10 18 -16 -6z"/>
<path d="M2294 1924 c3 -8 0 -22 -8 -30 -17 -16 -46 -19 -46 -4 0 6 -4 10 -10
10 -5 0 -7 -7 -4 -15 3 -8 -6 -25 -21 -39 -15 -14 -24 -30 -20 -36 4 -7 1 -10
-6 -9 -28 5 -67 -21 -135 -87 -38 -37 -64 -64 -57 -61 7 5 9 0 6 -14 -4 -13
-8 -17 -13 -9 -10 17 -15 17 -33 1 -23 -18 -21 -31 3 -31 13 0 20 -7 20 -20 0
-11 7 -20 15 -20 15 0 19 -20 15 -69 -2 -24 -47 -69 -63 -63 -5 1 -5 -2 -2 -8
9 -14 91 54 87 72 -2 7 0 10 4 5 4 -4 29 14 56 40 l48 47 2 -79 c1 -71 2 -74
7 -30 4 34 8 44 13 33 4 -10 5 -24 2 -32 -3 -7 3 -21 12 -31 16 -15 18 -15 26
-1 5 9 14 16 21 16 8 0 9 -3 1 -8 -6 -4 -13 -15 -17 -25 -4 -9 -12 -16 -19
-15 -7 2 -14 -8 -16 -22 -4 -22 1 -20 37 20 22 25 38 51 36 57 -2 7 1 12 8 10
7 -1 12 7 12 18 0 11 5 20 12 20 17 0 64 66 56 78 -3 6 -2 7 4 4 6 -4 25 13
44 36 18 23 26 38 18 32 -8 -5 -6 -2 4 8 11 9 16 17 12 17 -4 0 -2 6 4 14 8
10 9 16 1 21 -5 3 -10 22 -10 41 0 27 -4 34 -20 34 -17 0 -20 7 -20 40 0 33
-3 40 -20 40 -16 0 -20 7 -20 30 0 21 -5 30 -16 30 -11 0 -14 -5 -10 -16z m50
-291 c-5 -5 -12 -12 -16 -18 -4 -6 -8 -2 -8 8 0 9 7 17 17 17 9 0 12 -3 7 -7z
m-384 -13 c0 -5 -5 -10 -11 -10 -5 0 -7 5 -4 10 3 6 8 10 11 10 2 0 4 -4 4
-10z m94 -75 c3 -8 1 -15 -4 -15 -6 0 -10 7 -10 15 0 8 2 15 4 15 2 0 6 -7 10
-15z"/>
<path d="M6767 1900 c-13 -22 -26 -38 -29 -35 -6 7 -157 -154 -173 -184 -5
-11 -14 -20 -20 -20 -5 0 -12 -21 -15 -45 -4 -29 -14 -52 -28 -64 -12 -11 -22
-24 -22 -30 0 -6 20 9 45 35 25 25 42 50 38 56 -3 5 -1 7 4 4 10 -6 215 269
229 308 11 29 -5 15 -29 -25z m-67 -83 c0 -2 -12 -14 -27 -28 l-28 -24 24 28
c23 25 31 32 31 24z"/>
<path d="M8226 1782 c-4 -7 118 -117 263 -237 l36 -30 -30 36 c-16 20 -31 35
-33 33 -7 -5 -43 38 -37 44 4 4 11 -1 16 -10 5 -10 16 -15 24 -11 13 4 12 9
-6 24 -12 10 -19 25 -16 33 4 9 -3 16 -19 20 -13 4 -24 11 -24 16 0 6 -8 10
-17 9 -11 0 -13 -3 -5 -6 19 -7 14 -23 -7 -23 -10 0 -21 7 -25 15 -3 8 -10 15
-16 15 -17 0 -100 66 -93 74 3 3 4 6 0 6 -3 0 -8 -4 -11 -8z"/>
<path d="M8630 1665 c13 -14 26 -25 28 -25 3 0 -5 11 -18 25 -13 14 -26 25
-28 25 -3 0 5 -11 18 -25z"/>
<path d="M8690 1615 c13 -14 26 -25 28 -25 3 0 -5 11 -18 25 -13 14 -26 25
-28 25 -3 0 5 -11 18 -25z"/>
<path d="M1820 1519 c-57 -54 -66 -66 -28 -34 31 26 62 44 67 41 5 -4 13 -1
17 5 4 8 3 9 -4 5 -7 -4 -12 -3 -12 2 0 10 25 24 44 26 10 1 18 36 8 36 -4 -1
-45 -37 -92 -81z"/>
<path d="M6451 1507 c-8 -10 -7 -14 2 -14 8 0 14 6 14 14 0 7 -1 13 -2 13 -2
0 -8 -6 -14 -13z"/>
<path d="M6407 1489 c7 -7 15 -10 18 -7 3 3 -2 9 -12 12 -14 6 -15 5 -6 -5z"/>
<path d="M8882 1479 c29 -26 58 -78 59 -106 0 -12 2 -13 6 -5 10 26 -26 97
-60 116 l-32 18 27 -23z"/>
<path d="M8646 1431 c-3 -5 1 -14 8 -20 10 -9 16 -9 21 -1 4 6 1 9 -7 8 -7 -2
-12 3 -10 10 2 14 -4 16 -12 3z"/>
<path d="M1693 1407 c-4 -7 -29 -30 -55 -51 -26 -21 -45 -43 -41 -49 3 -5 1
-7 -4 -4 -6 4 -33 -12 -59 -36 -27 -24 -60 -51 -74 -61 -24 -16 -23 -17 55
-10 44 4 85 11 92 16 6 5 17 8 25 7 7 -1 20 -1 28 0 13 1 13 3 0 12 -13 9 -12
10 3 5 24 -8 70 11 61 26 -4 7 -3 8 4 4 7 -4 27 5 46 21 24 18 31 30 23 35
-12 7 -2 13 38 21 11 2 19 9 17 15 -1 7 10 17 24 22 34 13 28 20 -9 13 -20 -4
-27 -10 -24 -22 3 -14 -4 -15 -50 -13 -34 3 -53 0 -53 -7 0 -6 -4 -11 -10 -11
-19 0 -10 37 13 48 20 10 20 11 -13 11 -26 1 -31 4 -20 11 9 6 10 10 3 10 -7
0 -16 -6 -20 -13z"/>
<path d="M8742 1325 c34 -36 63 -65 66 -65 2 0 -1 6 -7 13 -6 8 -9 17 -6 20 3
4 2 5 -2 2 -3 -2 -17 7 -30 22 -19 20 -22 28 -11 34 9 6 7 9 -9 9 -25 0 -31
15 -10 23 6 3 -2 6 -20 6 l-32 1 61 -65z"/>
<path d="M2129 1343 c-13 -16 -12 -17 4 -4 9 7 17 15 17 17 0 8 -8 3 -21 -13z"/>
<path d="M9053 1269 c5 -30 37 -68 92 -110 83 -63 91 -42 12 36 -38 37 -71 64
-74 61 -3 -3 -12 2 -19 12 -11 14 -12 15 -11 1z"/>
<path d="M8860 1215 c13 -14 26 -25 28 -25 3 0 -5 11 -18 25 -13 14 -26 25
-28 25 -3 0 5 -11 18 -25z"/>
<path d="M8930 1166 c0 -2 8 -10 18 -17 15 -13 16 -12 3 4 -13 16 -21 21 -21
13z"/>
<path d="M2371 484 c0 -11 3 -14 6 -6 3 7 2 16 -1 19 -3 4 -6 -2 -5 -13z"/>
</g>
</svg>
